<?xml version="1.0" encoding="UTF-8" standalone="no"?><svg xmlns="http://www.w3.org/2000/svg" xmlns:xlink="http://www.w3.org/1999/xlink" contentScriptType="application/ecmascript" contentStyleType="text/css" height="253px" preserveAspectRatio="none" style="width:366px;height:253px;" version="1.1" viewBox="0 0 366 253" width="366px" zoomAndPan="magnify"><defs><filter height="300%" id="fdxakvmxrpb1v" width="300%" x="-1" y="-1"><feGaussianBlur result="blurOut" stdDeviation="2.0"/><feColorMatrix in="blurOut" result="blurOut2" type="matrix" values="0 0 0 0 0 0 0 0 0 0 0 0 0 0 0 0 0 0 .4 0"/><feOffset dx="4.0" dy="4.0" in="blurOut2" result="blurOut3"/><feBlend in="SourceGraphic" in2="blurOut3" mode="normal"/></filter></defs><g><!--cluster Currency Exchange Service--><polygon fill="#FFFFFF" filter="url(#fdxakvmxrpb1v)" points="22,154,246,154,253,176.2969,256,176.2969,256,241,22,241,22,154" style="stroke: #000000; stroke-width: 1.5;"/><line style="stroke: #000000; stroke-width: 1.5;" x1="22" x2="253" y1="176.2969" y2="176.2969"/><text fill="#000000" font-family="sans-serif" font-size="14" font-weight="bold" lengthAdjust="spacingAndGlyphs" textLength="218" x="26" y="168.9951">Currency Exchange Service</text><!--entity controller--><rect fill="#FEFECE" filter="url(#fdxakvmxrpb1v)" height="36.2969" style="stroke: #A80036; stroke-width: 1.5;" width="85" x="120.5" y="189"/><rect fill="#FEFECE" height="5" style="stroke: #A80036; stroke-width: 1.5;" width="10" x="115.5" y="194"/><rect fill="#FEFECE" height="5" style="stroke: #A80036; stroke-width: 1.5;" width="10" x="115.5" y="215.2969"/><text fill="#000000" font-family="sans-serif" font-size="14" lengthAdjust="spacingAndGlyphs" textLength="65" x="130.5" y="211.9951">controller</text><!--entity User--><ellipse cx="163" cy="18" fill="#FEFECE" filter="url(#fdxakvmxrpb1v)" rx="8" ry="8" style="stroke: #A80036; stroke-width: 2.0;"/><path d="M163,26 L163,53 M150,34 L176,34 M163,53 L150,68 M163,53 L176,68 " fill="none" filter="url(#fdxakvmxrpb1v)" style="stroke: #A80036; stroke-width: 2.0;"/><text fill="#000000" font-family="sans-serif" font-size="14" lengthAdjust="spacingAndGlyphs" textLength="32" x="147" y="87.9951">User</text><!--entity api--><path d="M309,196 C309,193 311,191 314,191 C317,191 319,193 319,196 C319,193 321,191 324,191 C327,191 329,193 329,196 C329,193 331,191 334,191 C337,191 339,193 339,196 C339,193 341,191 344,191 C347,191 349,193 349,196 C352,196 354,198 354,201 C354,204 352,206 349,206 C352,206 354,208 354,211 C354,214 352,216 349,216 C349,219 346,221 344,221 C341,221 339,219 339,216 C339,219 336,221 334,221 C331,221 329,219 329,216 C329,219 326,221 324,221 C321,221 319,219 319,216 C319,219 316,221 314,221 C311,221 309,219 309,216 C306,216 304,214 304,211 C304,208 306,206 309,206 C306,206 304,204 304,201 C304,198 306,196 309,196 " fill="#ADD8E6" filter="url(#fdxakvmxrpb1v)" style="stroke: #000000; stroke-width: 1.5;"/><text fill="#000000" font-family="sans-serif" font-size="14" lengthAdjust="spacingAndGlyphs" textLength="20" x="316" y="211.9951">api</text><!--link User to controller--><path d="M163,91.356 C163,120.803 163,159.4425 163,183.4935 " fill="none" id="User-controller" style="stroke: #A80036; stroke-width: 1.0;"/><polygon fill="#A80036" points="163,188.6898,167,179.6898,163,183.6898,159,179.6898,163,188.6898" style="stroke: #A80036; stroke-width: 1.0;"/><text fill="#000000" font-family="sans-serif" font-size="13" lengthAdjust="spacingAndGlyphs" textLength="50" x="164" y="134.0669">getRate</text><!--link controller to api--><path d="M205.826,207 C235.943,207 275.232,207 300.541,207 " fill="none" id="controller-api" style="stroke: #A80036; stroke-width: 1.0;"/><polygon fill="#A80036" points="305.721,207,296.721,203,300.721,207,296.721,211,305.721,207" style="stroke: #A80036; stroke-width: 1.0;"/><text fill="#000000" font-family="sans-serif" font-size="13" lengthAdjust="spacingAndGlyphs" textLength="0" x="287.75" y="200.0669"/></g></svg>