<?xml version="1.0" encoding="UTF-8" standalone="no"?><svg xmlns="http://www.w3.org/2000/svg" xmlns:xlink="http://www.w3.org/1999/xlink" contentScriptType="application/ecmascript" contentStyleType="text/css" height="447px" preserveAspectRatio="none" style="width:366px;height:447px;" version="1.1" viewBox="0 0 366 447" width="366px" zoomAndPan="magnify"><defs><filter height="300%" id="f1qfvhso0iopmb" width="300%" x="-1" y="-1"><feGaussianBlur result="blurOut" stdDeviation="2.0"/><feColorMatrix in="blurOut" result="blurOut2" type="matrix" values="0 0 0 0 0 0 0 0 0 0 0 0 0 0 0 0 0 0 .4 0"/><feOffset dx="4.0" dy="4.0" in="blurOut2" result="blurOut3"/><feBlend in="SourceGraphic" in2="blurOut3" mode="normal"/></filter></defs><g><!--cluster Currency Exchange Service--><polygon fill="#FFFFFF" filter="url(#f1qfvhso0iopmb)" points="22,154,246,154,253,176.2969,256,176.2969,256,435,22,435,22,154" style="stroke: #000000; stroke-width: 1.5;"/><line style="stroke: #000000; stroke-width: 1.5;" x1="22" x2="253" y1="176.2969" y2="176.2969"/><text fill="#000000" font-family="sans-serif" font-size="14" font-weight="bold" lengthAdjust="spacingAndGlyphs" textLength="218" x="26" y="168.9951">Currency Exchange Service</text><!--entity controller--><rect fill="#FEFECE" filter="url(#f1qfvhso0iopmb)" height="36.2969" style="stroke: #A80036; stroke-width: 1.5;" width="85" x="118.5" y="189"/><rect fill="#FEFECE" height="5" style="stroke: #A80036; stroke-width: 1.5;" width="10" x="113.5" y="194"/><rect fill="#FEFECE" height="5" style="stroke: #A80036; stroke-width: 1.5;" width="10" x="113.5" y="215.2969"/><text fill="#000000" font-family="sans-serif" font-size="14" lengthAdjust="spacingAndGlyphs" textLength="65" x="128.5" y="211.9951">controller</text><!--entity service--><rect fill="#FEFECE" filter="url(#f1qfvhso0iopmb)" height="36.2969" style="stroke: #A80036; stroke-width: 1.5;" width="69" x="126.5" y="286"/><rect fill="#FEFECE" height="5" style="stroke: #A80036; stroke-width: 1.5;" width="10" x="121.5" y="291"/><rect fill="#FEFECE" height="5" style="stroke: #A80036; stroke-width: 1.5;" width="10" x="121.5" y="312.2969"/><text fill="#000000" font-family="sans-serif" font-size="14" lengthAdjust="spacingAndGlyphs" textLength="49" x="136.5" y="308.9951">service</text><!--entity repository--><rect fill="#FEFECE" filter="url(#f1qfvhso0iopmb)" height="36.2969" style="stroke: #A80036; stroke-width: 1.5;" width="89" x="116.5" y="383"/><rect fill="#FEFECE" height="5" style="stroke: #A80036; stroke-width: 1.5;" width="10" x="111.5" y="388"/><rect fill="#FEFECE" height="5" style="stroke: #A80036; stroke-width: 1.5;" width="10" x="111.5" y="409.2969"/><text fill="#000000" font-family="sans-serif" font-size="14" lengthAdjust="spacingAndGlyphs" textLength="69" x="126.5" y="405.9951">repository</text><!--entity User--><ellipse cx="161" cy="18" fill="#FEFECE" filter="url(#f1qfvhso0iopmb)" rx="8" ry="8" style="stroke: #A80036; stroke-width: 2.0;"/><path d="M161,26 L161,53 M148,34 L174,34 M161,53 L148,68 M161,53 L174,68 " fill="none" filter="url(#f1qfvhso0iopmb)" style="stroke: #A80036; stroke-width: 2.0;"/><text fill="#000000" font-family="sans-serif" font-size="14" lengthAdjust="spacingAndGlyphs" textLength="32" x="145" y="87.9951">User</text><!--entity api--><path d="M309,390 C309,387 311,385 314,385 C317,385 319,387 319,390 C319,387 321,385 324,385 C327,385 329,387 329,390 C329,387 331,385 334,385 C337,385 339,387 339,390 C339,387 341,385 344,385 C347,385 349,387 349,390 C352,390 354,392 354,395 C354,398 352,400 349,400 C352,400 354,402 354,405 C354,408 352,410 349,410 C349,413 346,415 344,415 C341,415 339,413 339,410 C339,413 336,415 334,415 C331,415 329,413 329,410 C329,413 326,415 324,415 C321,415 319,413 319,410 C319,413 316,415 314,415 C311,415 309,413 309,410 C306,410 304,408 304,405 C304,402 306,400 309,400 C306,400 304,398 304,395 C304,392 306,390 309,390 " fill="#ADD8E6" filter="url(#f1qfvhso0iopmb)" style="stroke: #000000; stroke-width: 1.5;"/><text fill="#000000" font-family="sans-serif" font-size="14" lengthAdjust="spacingAndGlyphs" textLength="20" x="316" y="405.9951">api</text><!--link User to controller--><path d="M161,91.356 C161,120.803 161,159.442 161,183.493 " fill="none" id="User-controller" style="stroke: #A80036; stroke-width: 1.0;"/><polygon fill="#A80036" points="161,188.69,165,179.69,161,183.69,157,179.69,161,188.69" style="stroke: #A80036; stroke-width: 1.0;"/><text fill="#000000" font-family="sans-serif" font-size="13" lengthAdjust="spacingAndGlyphs" textLength="50" x="162" y="134.0669">getRate</text><!--link controller to service--><path d="M161,225.424 C161,240.959 161,263.783 161,280.655 " fill="none" id="controller-service" style="stroke: #A80036; stroke-width: 1.0;"/><polygon fill="#A80036" points="161,285.686,165,276.686,161,280.686,157,276.686,161,285.686" style="stroke: #A80036; stroke-width: 1.0;"/><!--link service to repository--><path d="M161,322.424 C161,337.959 161,360.7829 161,377.6554 " fill="none" id="service-repository" style="stroke: #A80036; stroke-width: 1.0;"/><polygon fill="#A80036" points="161,382.686,165,373.686,161,377.686,157,373.686,161,382.686" style="stroke: #A80036; stroke-width: 1.0;"/><!--link repository to api--><path d="M205.651,401 C236.124,401 275.393,401 300.637,401 " fill="none" id="repository-api" style="stroke: #A80036; stroke-width: 1.0;"/><polygon fill="#A80036" points="305.803,401,296.803,397,300.803,401,296.803,405,305.803,401" style="stroke: #A80036; stroke-width: 1.0;"/><text fill="#000000" font-family="sans-serif" font-size="13" lengthAdjust="spacingAndGlyphs" textLength="0" x="287.75" y="394.0669"/></g></svg>