<?xml version="1.0" encoding="UTF-8" standalone="no"?><svg xmlns="http://www.w3.org/2000/svg" xmlns:xlink="http://www.w3.org/1999/xlink" contentScriptType="application/ecmascript" contentStyleType="text/css" height="664px" preserveAspectRatio="none" style="width:643px;height:664px;" version="1.1" viewBox="0 0 643 664" width="643px" zoomAndPan="magnify"><defs><filter height="300%" id="fptl5vpj5wz6z" width="300%" x="-1" y="-1"><feGaussianBlur result="blurOut" stdDeviation="2.0"/><feColorMatrix in="blurOut" result="blurOut2" type="matrix" values="0 0 0 0 0 0 0 0 0 0 0 0 0 0 0 0 0 0 .4 0"/><feOffset dx="4.0" dy="4.0" in="blurOut2" result="blurOut3"/><feBlend in="SourceGraphic" in2="blurOut3" mode="normal"/></filter></defs><g><!--cluster Currency Exchange Service--><polygon fill="#FFFFFF" filter="url(#fptl5vpj5wz6z)" points="22,154,246,154,253,176.2969,567,176.2969,567,652,22,652,22,154" style="stroke: #000000; stroke-width: 1.5;"/><line style="stroke: #000000; stroke-width: 1.5;" x1="22" x2="253" y1="176.2969" y2="176.2969"/><text fill="#000000" font-family="sans-serif" font-size="14" font-weight="bold" lengthAdjust="spacingAndGlyphs" textLength="218" x="26" y="168.9951">Currency Exchange Service</text><!--cluster service--><polygon fill="#FFFFFF" filter="url(#fptl5vpj5wz6z)" points="46,272,110,272,117,294.2969,543,294.2969,543,553,46,553,46,272" style="stroke: #000000; stroke-width: 1.5;"/><line style="stroke: #000000; stroke-width: 1.5;" x1="46" x2="117" y1="294.2969" y2="294.2969"/><text fill="#000000" font-family="sans-serif" font-size="14" font-weight="bold" lengthAdjust="spacingAndGlyphs" textLength="58" x="50" y="286.9951">service</text><!--entity controller--><rect fill="#FEFECE" filter="url(#fptl5vpj5wz6z)" height="36.2969" style="stroke: #A80036; stroke-width: 1.5;" width="85" x="364.5" y="189"/><rect fill="#FEFECE" height="5" style="stroke: #A80036; stroke-width: 1.5;" width="10" x="359.5" y="194"/><rect fill="#FEFECE" height="5" style="stroke: #A80036; stroke-width: 1.5;" width="10" x="359.5" y="215.2969"/><text fill="#000000" font-family="sans-serif" font-size="14" lengthAdjust="spacingAndGlyphs" textLength="65" x="374.5" y="211.9951">controller</text><!--entity repository--><rect fill="#FEFECE" filter="url(#fptl5vpj5wz6z)" height="36.2969" style="stroke: #A80036; stroke-width: 1.5;" width="89" x="289.5" y="600"/><rect fill="#FEFECE" height="5" style="stroke: #A80036; stroke-width: 1.5;" width="10" x="284.5" y="605"/><rect fill="#FEFECE" height="5" style="stroke: #A80036; stroke-width: 1.5;" width="10" x="284.5" y="626.2969"/><text fill="#000000" font-family="sans-serif" font-size="14" lengthAdjust="spacingAndGlyphs" textLength="69" x="299.5" y="622.9951">repository</text><!--entity ExchangePriceCalculator--><rect fill="#FEFECE" filter="url(#fptl5vpj5wz6z)" height="36.2969" style="stroke: #A80036; stroke-width: 1.5;" width="190" x="62" y="307"/><rect fill="#FEFECE" height="5" style="stroke: #A80036; stroke-width: 1.5;" width="10" x="57" y="312"/><rect fill="#FEFECE" height="5" style="stroke: #A80036; stroke-width: 1.5;" width="10" x="57" y="333.2969"/><text fill="#000000" font-family="sans-serif" font-size="14" lengthAdjust="spacingAndGlyphs" textLength="170" x="72" y="329.9951">ExchangePriceCalculator</text><!--entity ExchangePriceCalculatorFactory--><rect fill="#FEFECE" filter="url(#fptl5vpj5wz6z)" height="36.2969" style="stroke: #A80036; stroke-width: 1.5;" width="240" x="287" y="307"/><rect fill="#FEFECE" height="5" style="stroke: #A80036; stroke-width: 1.5;" width="10" x="282" y="312"/><rect fill="#FEFECE" height="5" style="stroke: #A80036; stroke-width: 1.5;" width="10" x="282" y="333.2969"/><text fill="#000000" font-family="sans-serif" font-size="14" lengthAdjust="spacingAndGlyphs" textLength="220" x="297" y="329.9951">ExchangePriceCalculatorFactory</text><!--entity SimpleExchangePriceCalculator--><rect fill="#FEFECE" filter="url(#fptl5vpj5wz6z)" height="36.2969" style="stroke: #A80036; stroke-width: 1.5;" width="236" x="205" y="404"/><rect fill="#FEFECE" height="5" style="stroke: #A80036; stroke-width: 1.5;" width="10" x="200" y="409"/><rect fill="#FEFECE" height="5" style="stroke: #A80036; stroke-width: 1.5;" width="10" x="200" y="430.2969"/><text fill="#000000" font-family="sans-serif" font-size="14" lengthAdjust="spacingAndGlyphs" textLength="216" x="215" y="426.9951">SimpleExchangePriceCalculator</text><!--entity CryptoExchangePriceCalculator--><rect fill="#FEFECE" filter="url(#fptl5vpj5wz6z)" height="36.2969" style="stroke: #A80036; stroke-width: 1.5;" width="235" x="62.5" y="501"/><rect fill="#FEFECE" height="5" style="stroke: #A80036; stroke-width: 1.5;" width="10" x="57.5" y="506"/><rect fill="#FEFECE" height="5" style="stroke: #A80036; stroke-width: 1.5;" width="10" x="57.5" y="527.2969"/><text fill="#000000" font-family="sans-serif" font-size="14" lengthAdjust="spacingAndGlyphs" textLength="215" x="72.5" y="523.9951">CryptoExchangePriceCalculator</text><!--entity User--><ellipse cx="407" cy="18" fill="#FEFECE" filter="url(#fptl5vpj5wz6z)" rx="8" ry="8" style="stroke: #A80036; stroke-width: 2.0;"/><path d="M407,26 L407,53 M394,34 L420,34 M407,53 L394,68 M407,53 L420,68 " fill="none" filter="url(#fptl5vpj5wz6z)" style="stroke: #A80036; stroke-width: 2.0;"/><text fill="#000000" font-family="sans-serif" font-size="14" lengthAdjust="spacingAndGlyphs" textLength="32" x="391" y="87.9951">User</text><!--entity api--><path d="M586,607 C586,604 588,602 591,602 C594,602 596,604 596,607 C596,604 598,602 601,602 C604,602 606,604 606,607 C606,604 608,602 611,602 C614,602 616,604 616,607 C616,604 618,602 621,602 C624,602 626,604 626,607 C629,607 631,609 631,612 C631,615 629,617 626,617 C629,617 631,619 631,622 C631,625 629,627 626,627 C626,630 623,632 621,632 C618,632 616,630 616,627 C616,630 613,632 611,632 C608,632 606,630 606,627 C606,630 603,632 601,632 C598,632 596,630 596,627 C596,630 593,632 591,632 C588,632 586,630 586,627 C583,627 581,625 581,622 C581,619 583,617 586,617 C583,617 581,615 581,612 C581,609 583,607 586,607 " fill="#ADD8E6" filter="url(#fptl5vpj5wz6z)" style="stroke: #000000; stroke-width: 1.5;"/><text fill="#000000" font-family="sans-serif" font-size="14" lengthAdjust="spacingAndGlyphs" textLength="20" x="593" y="622.9951">api</text><!--link ExchangePriceCalculator to ExchangePriceCalculatorFactory--><path d="M257.375,325 C267.244,325 277.113,325 286.981,325 " fill="none" id="ExchangePriceCalculator-ExchangePriceCalculatorFactory" style="stroke: #A80036; stroke-width: 1.0;"/><polygon fill="#A80036" points="252.215,325,261.215,329,257.215,325,261.215,321,252.215,325" style="stroke: #A80036; stroke-width: 1.0;"/><!--link ExchangePriceCalculator to SimpleExchangePriceCalculator--><path d="M187.061,343.204 C215.618,359.547 258.525,384.102 288.471,401.24 " fill="none" id="ExchangePriceCalculator-SimpleExchangePriceCalculator" style="stroke: #A80036; stroke-width: 1.0;"/><polygon fill="#A80036" points="293.162,403.924,287.3383,395.9814,288.8226,401.4401,283.364,402.9244,293.162,403.924" style="stroke: #A80036; stroke-width: 1.0;"/><!--link ExchangePriceCalculator to CryptoExchangePriceCalculator--><path d="M157.334,343.08 C158.081,370.309 160.469,425.162 168,471 C169.331,479.102 171.389,487.85 173.427,495.577 " fill="none" id="ExchangePriceCalculator-CryptoExchangePriceCalculator" style="stroke: #A80036; stroke-width: 1.0;"/><polygon fill="#A80036" points="174.825,500.743,176.3328,491.0102,173.5178,495.9169,168.6111,493.1018,174.825,500.743" style="stroke: #A80036; stroke-width: 1.0;"/><!--link User to controller--><path d="M407,91.356 C407,120.803 407,159.442 407,183.493 " fill="none" id="User-controller" style="stroke: #A80036; stroke-width: 1.0;"/><polygon fill="#A80036" points="407,188.69,411,179.69,407,183.69,403,179.69,407,188.69" style="stroke: #A80036; stroke-width: 1.0;"/><text fill="#000000" font-family="sans-serif" font-size="13" lengthAdjust="spacingAndGlyphs" textLength="50" x="408" y="134.0669">getRate</text><!--link controller to ExchangePriceCalculatorFactory--><path d="M407,225.116 C407,245.42 407,279.325 407,301.674 " fill="none" id="controller-ExchangePriceCalculatorFactory" style="stroke: #A80036; stroke-width: 1.0;"/><polygon fill="#A80036" points="407,306.814,411,297.814,407,301.814,403,297.814,407,306.814" style="stroke: #A80036; stroke-width: 1.0;"/><!--link SimpleExchangePriceCalculator to repository--><path d="M323.976,440.216 C325.974,475.449 330.527,555.741 332.742,594.8163 " fill="none" id="SimpleExchangePriceCalculator-repository" style="stroke: #A80036; stroke-width: 1.0;"/><polygon fill="#A80036" points="333.026,599.8224,336.5099,590.6103,332.7428,594.8304,328.5227,591.0634,333.026,599.8224" style="stroke: #A80036; stroke-width: 1.0;"/><!--link CryptoExchangePriceCalculator to repository--><path d="M207.178,537.118 C233.816,553.897 274.395,579.4568 302.445,597.1246 " fill="none" id="CryptoExchangePriceCalculator-repository" style="stroke: #A80036; stroke-width: 1.0;"/><polygon fill="#A80036" points="306.836,599.8899,301.3519,591.7092,302.6051,597.2255,297.0888,598.4787,306.836,599.8899" style="stroke: #A80036; stroke-width: 1.0;"/><!--link repository to api--><path d="M378.722,618 C435.688,618 532.196,618 577.755,618 " fill="none" id="repository-api" style="stroke: #A80036; stroke-width: 1.0;"/><polygon fill="#A80036" points="582.79,618,573.79,614,577.79,618,573.79,622,582.79,618" style="stroke: #A80036; stroke-width: 1.0;"/><text fill="#000000" font-family="sans-serif" font-size="13" lengthAdjust="spacingAndGlyphs" textLength="0" x="512.75" y="611.0669"/></g></svg>